<svg width="85" height="82" viewBox="0 0 85 82" fill="none" xmlns="http://www.w3.org/2000/svg"><path d="M1.789 30.259C12.05 24.219 18.06 13.106 16.918 2.375c-2.082 10.35 4.838 21.55 15.92 25.773-6.332 1.994-10.73 7.213-12.754 12.813-2.023 5.57-1.993 11.523-1.964 17.387 1.202-10.702-6.333-21.697-16.302-28.06l-.03-.03z" stroke="#FAB758" stroke-width=".25" stroke-miterlimit="10"/><path d="M18.09 59.784h-.087c-.763-.029-1.349-.674-1.349-1.436V53.89c-.997-9.148-8.151-17.622-15.657-22.4a1.386 1.386 0 01-.645-1.232c0-.499.264-.968.704-1.202C8.708 24.54 13.927 16.947 15.276 9a20.939 20.939 0 01.235-6.89A1.424 1.424 0 0116.977.968c.703.029 1.29.586 1.348 1.26a26.634 26.634 0 01-.146 6.656c1.173 7.623 7.007 14.836 15.129 17.944.557.206.938.763.909 1.378a1.38 1.38 0 01-.997 1.32c-5.307 1.671-9.734 6.128-11.816 11.933-1.437 3.958-1.789 8.151-1.877 12.344a25.074 25.074 0 010 4.691 1.423 1.423 0 01-1.407 1.261l-.03.03zM4.399 30.317c5.278 3.812 10.204 9.266 12.96 15.452a27.979 27.979 0 011.378-5.277c1.964-5.454 5.776-9.91 10.497-12.374C23.398 25.04 19 20.143 16.742 14.543 14.514 20.7 10.174 26.33 4.398 30.288v.03z" fill="#FAB758" stroke="#FAB758" stroke-width=".25" stroke-miterlimit="10"/><path d="M55.533 58.582c9.148-4.017 14.748-12.784 13.546-21.17 1.7 8.27 4.603 17.857 14.132 21.17-4.926 1.202-8.59 4.691-10.555 8.533-1.994 3.84-2.522 8.033-3.05 12.197 1.29-9.119-5.922-18.59-14.073-20.7v-.03z" stroke="#FAB758" stroke-width=".25" stroke-miterlimit="10"/><path d="M69.607 80.72H69.4a1.446 1.446 0 01-1.231-1.613c0-.147.03-.323.059-.47.938-8.532-6.011-16.83-13.077-18.677-.587-.146-1.026-.674-1.056-1.26-.058-.616.293-1.173.85-1.437 8.591-3.782 13.84-11.875 12.696-19.645a1.42 1.42 0 011.173-1.612 1.401 1.401 0 011.642 1.114c1.789 8.679 4.603 17.123 13.194 20.114.587.205.997.791.968 1.407a1.408 1.408 0 01-1.085 1.32c-4.076.996-7.594 3.84-9.617 7.799-1.789 3.489-2.346 7.388-2.844 11.2 0 .176-.03.352-.059.528a1.422 1.422 0 01-1.407 1.231zM59.05 58.376c4.574 2.228 8.767 6.568 10.82 11.787.38-1.26.88-2.492 1.524-3.724 1.818-3.548 4.662-6.333 8.063-8.004-5.013-2.874-7.858-7.682-9.705-12.93-1.67 5.13-5.453 9.763-10.702 12.871z" fill="#FAB758" stroke="#FAB758" stroke-width=".25" stroke-miterlimit="10"/></svg>