<svg width="74" height="72" viewBox="0 0 74 72" fill="none" xmlns="http://www.w3.org/2000/svg"><path d="M49.912 51.117s-.257.202-.43.306c-1.042.628-2.145.488-2.483-.349-5.14-12.68-12.95-23.468-23.142-32.16-.634-.54-.5-1.732.388-2.575.843-.84 2.094-1.12 2.777-.538 10.483 8.941 18.454 20.035 23.755 33.02.283.706-.098 1.644-.861 2.34l-.004-.044z" fill="#605DBA" stroke="#605DBA" stroke-width=".83" stroke-miterlimit="10"/><path d="M64.63 34.917s-.218.108-.309.115c-1.153.364-2.273-.002-2.48-.894L56.122 8.962c-.207-.893.577-1.909 1.73-2.273 1.154-.364 2.274.002 2.481.895l5.719 25.176c.2.802-.456 1.717-1.421 2.157v0z" fill="#605DBA" stroke="#605DBA" stroke-width=".85" stroke-miterlimit="10"/><path d="M33.29 61.476s-.077.187-.16.285c-.596 1.092-1.607 1.535-2.324 1.092l-19.93-13.965c-.675-.492-.775-1.756-.225-2.845.596-1.092 1.607-1.536 2.324-1.093l19.979 14.008c.627.45.758 1.53.335 2.518z" fill="#605DBA" stroke="#605DBA" stroke-width=".82" stroke-miterlimit="10"/></svg>