<svg width="976" height="117" viewBox="0 0 976 117" fill="none" xmlns="http://www.w3.org/2000/svg"><g clip-path="url(#clip0_105_52)" fill="#FAB758" stroke="#FAB758" stroke-width=".83" stroke-miterlimit="10"><path d="M2.212 23.155c-.51 0-.997-.345-1.142-.885-.17-.64.194-1.303.826-1.5L40.472 9.61a1.22 1.22 0 011.483.837 1.238 1.238 0 01-.827 1.499L2.552 23.106s-.218.049-.34.049z"/><path d="M27.88 39.992c-.534 0-.996-.393-1.142-.934L17.161 2.556a1.216 1.216 0 01.85-1.475c.633-.172 1.29.222 1.46.86l9.576 36.527c.17.64-.218 1.303-.85 1.475-.098.025-.195.05-.316.05z"/></g><g clip-path="url(#clip1_105_52)" fill="#FAB758" stroke="#FAB758" stroke-width="1.2" stroke-miterlimit="10"><path d="M951.218 89.858a.721.721 0 01.149-.864.756.756 0 011.042.008l17.03 17.33a.737.737 0 01-.025 1.031.756.756 0 01-1.042-.008l-17.03-17.33s-.089-.102-.124-.167z"/><path d="M949.517 108.389c-.153-.285-.074-.644.175-.878l16.869-15.632a.74.74 0 011.035.028c.274.287.25.75-.045 1.025l-16.881 15.639a.742.742 0 01-1.153-.182z"/></g><defs><clipPath id="clip0_105_52"><path fill="#fff" d="M0 0h43v41H0z"/></clipPath><clipPath id="clip1_105_52"><path fill="#fff" transform="rotate(61.763 412.955 846.143)" d="M0 0h26v25H0z"/></clipPath></defs></svg>