<svg width="56" height="45" viewBox="0 0 56 45" fill="none" xmlns="http://www.w3.org/2000/svg"><g clip-path="url(#clip0_105_61)" fill="#3F78E0" stroke="#3F78E0" stroke-width=".83" stroke-miterlimit="10"><path d="M39.82 9.193s-.044.225-.13.355c-6.429 13.075-21.122 21.37-35.749 20.157a1.4 1.4 0 01-1.288-1.516 1.396 1.396 0 011.52-1.279c13.466 1.128 27.029-6.514 32.968-18.602a1.426 1.426 0 011.895-.648c.59.293.902.941.784 1.533v0zm11.457 13.442c-.028.14-.062.31-.175.434-4.312 7.315-10.568 13.305-18.124 17.25-.69.36-1.552.101-1.915-.586a1.407 1.407 0 01.585-1.905c6.968-3.652 13.004-9.423 17-16.185.4-.682 1.267-.89 1.924-.496.527.31.789.919.677 1.482l.028.006z"/></g><defs><clipPath id="clip0_105_61"><path fill="#fff" transform="rotate(-78.742 21.514 17.654)" d="M0 0h36v49H0z"/></clipPath></defs></svg>