<svg width="110" height="114" viewBox="0 0 110 114" fill="none" xmlns="http://www.w3.org/2000/svg"><g clip-path="url(#clip0_106_53)"><path d="M.182 100.709c.066-.593.461-1.148 1.082-1.345 11.726-4.076 20.353-16.331 22.408-29.56C15.59 67.494 8.43 61.423 8.168 52.53c-.081-3.108.865-5.9 2.586-7.605 2.652-2.6 7.044-2.639 10.242-.046 2.254 1.82 3.89 4.703 5.018 8.861 1.199 4.4 1.577 9.008 1.168 13.526.427.048.882.133 1.313.148 11.954 1.28 24.208-3.936 31.943-13.593 4.066-5.107 6.769-11.399 7.9-17.902-3.152-1.521-6.17-3.36-9.025-5.448-3.195-2.326-7.04-5.658-8.604-10.665-1.49-4.766-.183-11.349 4.636-13.704 2-.941 4.232-.99 6.394-.113 3.492 1.46 6.8 5.43 8.43 10.146 1.93 5.581 2.47 11.706 1.743 17.854 10.136 4.44 21.415 5.812 32.285 3.738a1.62 1.62 0 011.883 1.278 1.627 1.627 0 01-1.276 1.889c-11.242 2.132-22.893.819-33.397-3.596-1.325 6.747-4.186 13.255-8.404 18.544-8.398 10.515-21.769 16.206-34.806 14.804l-1.345-.152c-2.31 14.3-11.71 27.534-24.47 31.927-.833.306-1.776-.166-2.049-.997a1.78 1.78 0 01-.086-.709l-.065-.007zm23.864-34.228c.285-4-.09-8.04-1.153-11.891-.938-3.471-2.236-5.817-3.944-7.175-1.647-1.319-4.323-1.753-5.93-.169-1.086 1.078-1.699 2.974-1.615 5.183.206 7.02 6.059 12.01 12.639 14.085l.004-.033zm44.74-33.942c.49-5.242-.076-10.537-1.727-15.355-1.3-3.81-3.952-7.108-6.588-8.205-1.334-.55-2.534-.519-3.76.043-3.096 1.517-4.042 6.375-2.965 9.795 1.302 4.078 4.667 6.956 7.461 9.003 2.393 1.769 4.944 3.322 7.55 4.682l.028.037z" fill="#3F78E0"/></g><defs><clipPath id="clip0_106_53"><path fill="#fff" transform="rotate(96.428 49.729 54.347)" d="M0 0h102.968v98.392H0z"/></clipPath></defs></svg>