<svg width="47" height="47" viewBox="0 0 47 47" fill="none" xmlns="http://www.w3.org/2000/svg"><g clip-path="url(#clip0_106_55)" stroke="#FAB758" stroke-width=".75" stroke-miterlimit="10"><path d="M27.339 39.772L6.818 22.638c-3.379-2.834-3.864-7.9-1.032-11.313 2.812-3.407 7.857-3.86 11.256-1.03l3.567 2.978 1.708-4.323c1.63-4.11 6.277-6.127 10.376-4.48 4.1 1.647 6.113 6.302 4.482 10.413L27.36 39.767l-.02.005z"/><path d="M27.589 40.755a1.037 1.037 0 01-.925-.213L6.143 23.408c-3.793-3.177-4.334-8.891-1.15-12.714a8.97 8.97 0 016.083-3.216c2.423-.233 4.764.495 6.645 2.066l2.459 2.044 1.18-2.97c.885-2.255 2.613-4.02 4.847-4.995a8.97 8.97 0 016.88-.086c4.605 1.838 6.88 7.09 5.054 11.72L28.325 40.14a1.037 1.037 0 01-.71.629l-.026-.015zM10.182 9.692a6.924 6.924 0 00-3.62 2.29c-2.463 2.977-2.055 7.4.91 9.892l19.417 16.219 9.29-23.533c1.415-3.586-.348-7.686-3.936-9.121a6.818 6.818 0 00-5.295.067A6.943 6.943 0 0023.22 9.34l-1.707 4.322c-.236.616-1.135.845-1.636.417L16.31 11.1c-1.436-1.193-3.26-1.775-5.106-1.583a6.283 6.283 0 00-1.063.186l.04-.01z" fill="#FAB758"/></g><defs><clipPath id="clip0_106_55"><path fill="#fff" transform="rotate(-14.293 37.413 4.69)" d="M0 0h38v38H0z"/></clipPath></defs></svg>