<svg width="117" height="120" viewBox="0 0 117 120" fill="none" xmlns="http://www.w3.org/2000/svg"><g clip-path="url(#clip0_105_31)"><path d="M115.955 19.489c-.107.586-.539 1.113-1.171 1.267-11.977 3.268-21.419 14.907-24.371 27.965 7.906 2.855 14.636 9.4 14.29 18.29-.13 3.105-1.264 5.827-3.097 7.41-2.824 2.413-7.208 2.152-10.221-.652-2.126-1.97-3.562-4.957-4.403-9.183a38.393 38.393 0 01-.243-13.574c-.423-.077-.872-.192-1.3-.237-11.84-2.091-24.42 2.278-32.796 11.385-4.404 4.817-7.53 10.911-9.101 17.322 3.041 1.732 5.925 3.773 8.633 6.05 3.028 2.538 6.638 6.124 7.856 11.227 1.162 4.856-.59 11.334-5.558 13.356-2.06.803-4.29.699-6.387-.323-3.384-1.694-6.414-5.882-7.718-10.696-1.546-5.7-1.667-11.848-.524-17.933-9.81-5.12-20.969-7.257-31.955-5.928a1.622 1.622 0 01-1.792-1.404A1.627 1.627 0 017.5 72.034c11.36-1.361 22.895.742 33.074 5.863 1.782-6.641 5.08-12.94 9.649-17.928 9.094-9.919 22.822-14.685 35.733-12.397l1.332.242c3.278-14.109 13.56-26.672 26.589-30.185.851-.249 1.761.287 1.975 1.134.056.246.08.486.038.714l.065.012zM89.813 52.01c-.556 3.97-.457 8.027.34 11.942.7 3.527 1.835 5.955 3.447 7.427 1.552 1.427 4.193 2.043 5.905.572 1.156-1.001 1.896-2.852 1.964-5.06.272-7.018-5.227-12.396-11.65-14.914l-.006.033zM42.865 82.825c-.847 5.196-.643 10.517.676 15.436 1.037 3.891 3.459 7.362 6.013 8.635 1.293.64 2.493.69 3.755.214 3.192-1.303 4.467-6.085 3.625-9.57-1.021-4.158-4.182-7.258-6.83-9.491-2.267-1.928-4.706-3.652-7.213-5.186l-.026-.038z" fill="#605DBA"/></g><defs><clipPath id="clip0_105_31"><path fill="#fff" transform="rotate(-79.664 61.353 50.183)" d="M0 0h102.968v98.392H0z"/></clipPath></defs></svg>