<svg width="42" height="55" viewBox="0 0 42 55" fill="none" xmlns="http://www.w3.org/2000/svg"><g clip-path="url(#clip0_103_106)" fill="#3F78E0" stroke="#3F78E0" stroke-width=".83" stroke-miterlimit="10"><path d="M4.689 42.735a1.476 1.476 0 01-.613-.373c-.68-.587-.699-1.55-.114-2.112 8.18-7.775 9.47-19.826 10.132-32.51.036-.817.808-1.41 1.697-1.324.889.086 1.582.837 1.546 1.654-.692 13.28-2.065 25.875-10.984 34.35-.43.425-1.097.512-1.696.304l.032.01zm12.923 6.55a1.828 1.828 0 01-.587-.321c-.72-.575-.858-1.448-.269-1.98 5.194-4.887 9.184-10.545 11.785-16.863.28-.699 1.227-.989 2.104-.654.877.334 1.357 1.178 1.077 1.877-2.743 6.623-6.909 12.574-12.358 17.666-.437.408-1.128.492-1.752.276z"/></g><defs><clipPath id="clip0_103_106"><path fill="#fff" transform="rotate(19.164 7.878 46.669)" d="M0 0h27.436v48H0z"/></clipPath></defs></svg>