<svg width="152" height="147" viewBox="0 0 152 147" fill="none" xmlns="http://www.w3.org/2000/svg"><g clip-path="url(#clip0_103_79)"><path d="M131.526 146.566c-.774-.111-1.486-.651-1.719-1.472-4.876-15.53-20.593-27.322-37.848-30.542-3.348 10.5-11.589 19.642-23.252 19.631-4.076-.016-7.697-1.367-9.864-3.69-3.301-3.58-3.177-9.337.348-13.425 2.475-2.882 6.318-4.911 11.812-6.223 5.814-1.397 11.867-1.709 17.772-.993.08-.557.209-1.151.246-1.715 2.153-15.614-4.196-31.88-16.544-42.402-6.53-5.53-14.668-9.323-23.145-11.064-2.12 4.07-4.65 7.95-7.499 11.61-3.175 4.094-7.694 9.002-14.318 10.851-6.305 1.764-14.88-.21-17.775-6.62-1.154-2.658-1.128-5.586.106-8.383 2.052-4.518 7.388-8.696 13.631-10.643 7.392-2.308 15.44-2.772 23.468-1.576 6.222-13.106 8.467-27.833 6.182-42.16-.184-1.164.626-2.228 1.75-2.417A2.134 2.134 0 0157.3 7.08c2.347 14.817.163 30.033-6.04 43.623 8.79 2.005 17.204 6.012 23.967 11.751C88.675 73.878 95.6 91.627 93.244 108.656l-.252 1.757c18.648 3.595 35.617 16.442 40.867 33.338.368 1.102-.289 2.32-1.388 2.644-.319.085-.632.128-.933.085l-.012.086zM87.62 113.93c-5.23-.532-10.54-.2-15.63 1.038-4.585 1.092-7.71 2.699-9.559 4.884-1.793 2.105-2.469 5.595-.456 7.765 1.368 1.465 3.83 2.343 6.727 2.322 9.208.009 15.98-7.463 18.96-16.003l-.042-.006zM44.918 53.95c-6.85-.852-13.811-.32-20.19 1.652-5.046 1.551-9.473 4.897-11.015 8.307-.774 1.726-.78 3.3-.093 4.93 1.865 4.117 8.193 5.55 12.718 4.274 5.396-1.544 9.301-5.84 12.095-9.42 2.414-3.065 4.55-6.346 6.436-9.706l.05-.037z" fill="#3F78E0"/></g><defs><clipPath id="clip0_103_79"><path fill="#fff" transform="rotate(8.166 9.162 128.345)" d="M0 0h135v129H0z"/></clipPath></defs></svg>