<svg xmlns="http://www.w3.org/2000/svg" viewBox="0 0 457.71 446.45"><path class="svg-fill" d="M205.62 442.54c-.51-.41-.99-.84-1.46-1.31-10.4-10.39-3.61-27.12 11.63-52.5 11.72-19.51 28.48-43.74 46.22-69.39 17.53-25.34 35.66-51.54 49.01-73.47 14.73-24.19 18.57-35.01 19.51-39.48-3.86-.28-13.15.3-33.78 6.52-19.71 5.94-43.09 14.92-65.7 23.6-63.8 24.49-85.35 31.41-96.51 19.5-3.21-3.43-7.62-11.04-1.12-23.54 2.49-4.79 6.64-10.51 12.68-17.5 10.4-12.03 25.04-26.34 40.55-41.49 14.02-13.7 28.53-27.87 39.53-40.11 9.93-11.04 14.15-17.43 15.94-20.82-3.43-.75-10.24-1.51-23.25-.92-14.99.68-33.44 2.89-51.28 5.02-46.92 5.61-74.09 8.33-86.81-.99-4.78-3.5-7.67-8.42-8.41-14.24-1.97-15.58 12.45-33.15 29.14-53.5 5.31-6.47 13.31-16.22 17.36-22.68-4.51-.38-12.43-.4-25.97 1.1-16.54 1.82-35.62 5.22-50.95 7.96-12.62 2.25-22.6 4.03-28.48 4.49C6.6 39.3.58 34.17.04 27.28c-.54-6.88 4.6-12.9 11.48-13.44 4.66-.37 14.58-2.13 26.06-4.18C54.56 6.63 75.7 2.86 94 1.07c26.41-2.6 40.16-.54 47.48 7.13 7.01 7.34 6.45 17.66-1.68 30.66-4.72 7.55-11.63 15.98-18.95 24.9-6.18 7.53-12.57 15.31-17.24 22.19-3.35 4.92-4.95 8.13-5.71 10.07 3 .54 9.09 1.08 20.87.43 13.21-.73 29.07-2.63 45.86-4.64 59.99-7.17 94.33-10.22 102.49 10.62 7.4 18.93-16.51 43.51-62.99 88.92-12.69 12.4-24.68 24.11-34.04 34.28-3.17 3.45-5.68 6.34-7.67 8.75 15.88-4.42 41.18-14.13 59.67-21.22 62.4-23.96 101.69-37.87 121.09-29.14 5.38 2.42 9.26 6.47 11.23 11.72 7.48 19.95-16.15 57.31-71.83 137.82-15.49 22.39-30.12 43.55-41.18 61.25-7.13 11.4-11.3 19.11-13.75 24.25 8.97-3.3 25.58-11 55.73-28.8 32.68-19.29 70.61-44.04 101.09-63.94 24.62-16.07 44.07-28.76 54.65-34.68 6.03-3.37 13.64-1.22 17.01 4.81 3.37 6.03 1.22 13.64-4.81 17.01-9.83 5.5-29.92 18.61-53.18 33.79-33.46 21.84-75.1 49.01-110.05 69.21-49.35 28.51-70.85 35.44-82.46 26.07z"/></svg>