<svg xmlns="http://www.w3.org/2000/svg" viewBox="0 0 256 256"><path class="fill-primary" d="M206.43 82.68h-30.59c-12.5 0-22.67-10.18-22.67-22.67 0-6.56 2.85-12.42 7.31-16.56-10.08-3.89-21.01-6.11-32.48-6.11-50.08 0-90.67 40.59-90.67 90.67s40.59 90.67 90.67 90.67 90.67-40.59 90.67-90.67c0-16.53-4.5-31.98-12.24-45.33zm-82.48 37.33h8.11c12.46 0 22.61 10.14 22.61 22.61 0 11.22-8.08 20.43-18.67 22.32v8.4c0 4.42-3.58 8-8 8s-8-3.58-8-8v-8h-10.67c-4.42 0-8-3.58-8-8s3.58-8 8-8h22.72c3.65 0 6.61-2.98 6.61-6.61s-2.98-6.72-6.61-6.72h-8.11c-12.46 0-22.61-10.14-22.61-22.61 0-11.22 8.08-20.43 18.67-22.32v-8.4c0-4.42 3.58-8 8-8s8 3.58 8 8v8h10.67c4.42 0 8 3.58 8 8s-3.58 8-8 8h-22.72c-3.65 0-6.61 2.98-6.61 6.61-.02 3.74 2.96 6.72 6.61 6.72z"/><path class="fill-secondary" d="M245.33 117.33c-5.89 0-10.67 4.78-10.67 10.67 0 58.82-47.86 106.67-106.67 106.67S21.33 186.82 21.33 128 69.18 21.33 128 21.33c19.5 0 38.98 5.46 55.78 14.94L170 50.05a10.661 10.661 0 007.54 18.21h46.93c5.89 0 10.67-4.78 10.67-10.67V10.68c0-4.32-2.59-8.21-6.58-9.86-4-1.66-8.58-.75-11.63 2.32l-17.54 17.54C178.4 7.48 153.52 0 128 0 57.42 0 0 57.43 0 128s57.42 128 128 128 128-57.42 128-128c0-5.89-4.77-10.67-10.67-10.67z"/></svg>