<svg width="135" height="40" viewBox="0 0 135 40" fill="none" xmlns="http://www.w3.org/2000/svg"><g clip-path="url(#clip0_204_2)"><path fill="#000" d="M0 0h135v40H0z"/><path d="M47.45 10.24c0 .84-.25 1.51-.75 2-.56.59-1.29.89-2.2.89-.91 0-1.61-.3-2.21-.9-.6-.6-.9-1.35-.9-2.23 0-.88.3-1.63.9-2.23.6-.6 1.34-.91 2.21-.91.44 0 .86.08 1.25.23.39.16.71.38.96.66l-.55.55c-.18-.22-.42-.4-.72-.52a2.29 2.29 0 00-.94-.19c-.65 0-1.21.23-1.66.68-.45.46-.67 1.03-.67 1.72s.22 1.26.67 1.72c.45.45 1 .68 1.66.68.6 0 1.09-.17 1.49-.5.4-.33.63-.8.69-1.38H44.5v-.72h2.91c.03.16.04.31.04.45zM52.06 7v.74h-2.73v1.9h2.46v.72h-2.46v1.9h2.73V13h-3.5V7h3.5zm3.25.74V13h-.77V7.74h-1.68V7h4.12v.74H55.3h.01zM60.74 13h-.77V7h.77v6zm3.42-5.26V13h-.77V7.74h-1.68V7h4.12v.74h-1.68.01zM74.52 10c0 .89-.3 1.63-.89 2.23-.6.6-1.33.9-2.2.9-.87 0-1.6-.3-2.2-.9-.59-.6-.89-1.34-.89-2.23 0-.89.3-1.63.89-2.23.59-.6 1.32-.91 2.2-.91.88 0 1.6.3 2.2.91.59.6.89 1.34.89 2.22V10zm-5.38 0c0 .69.22 1.27.65 1.72.44.45.99.68 1.64.68.65 0 1.2-.23 1.63-.68.44-.45.66-1.02.66-1.72s-.22-1.27-.66-1.72c-.44-.45-.98-.68-1.63-.68-.65 0-1.2.23-1.64.68-.44.45-.65 1.03-.65 1.72zm7.23 3h-.77V7h.94l2.92 4.67h.03l-.03-1.16V7h.77v6h-.8l-3.05-4.89h-.03l.03 1.16v3.74l-.01-.01zm-8.2 8.75c-2.35 0-4.27 1.79-4.27 4.25s1.92 4.25 4.27 4.25c2.35 0 4.27-1.8 4.27-4.25s-1.92-4.25-4.27-4.25zm0 6.83c-1.29 0-2.4-1.06-2.4-2.58s1.11-2.58 2.4-2.58c1.29 0 2.4 1.05 2.4 2.58s-1.11 2.58-2.4 2.58zm-9.31-6.83c-2.35 0-4.27 1.79-4.27 4.25s1.92 4.25 4.27 4.25c2.35 0 4.27-1.8 4.27-4.25s-1.92-4.25-4.27-4.25zm0 6.83c-1.29 0-2.4-1.06-2.4-2.58s1.11-2.58 2.4-2.58c1.29 0 2.4 1.05 2.4 2.58s-1.11 2.58-2.4 2.58zm-11.08-5.53v1.8h4.32c-.13 1.01-.47 1.76-.98 2.27-.63.63-1.61 1.32-3.33 1.32-2.66 0-4.74-2.14-4.74-4.8 0-2.66 2.08-4.8 4.74-4.8 1.43 0 2.48.56 3.25 1.29l1.27-1.27c-1.08-1.03-2.51-1.82-4.53-1.82-3.64 0-6.7 2.96-6.7 6.61 0 3.65 3.06 6.61 6.7 6.61 1.97 0 3.45-.64 4.61-1.85 1.19-1.19 1.56-2.87 1.56-4.22 0-.42-.03-.81-.1-1.13h-6.07v-.01zm45.31 1.4c-.35-.95-1.43-2.71-3.64-2.71s-4.01 1.72-4.01 4.25c0 2.38 1.8 4.25 4.22 4.25 1.95 0 3.08-1.19 3.54-1.88l-1.45-.97c-.48.71-1.14 1.18-2.09 1.18s-1.63-.43-2.06-1.29l5.69-2.35-.19-.48h-.01zm-5.8 1.42c-.05-1.64 1.27-2.48 2.22-2.48.74 0 1.37.37 1.58.9l-3.8 1.58zm-4.62 4.12h1.87v-12.5h-1.87v12.5zm-3.06-7.3h-.06c-.42-.5-1.22-.95-2.24-.95-2.13 0-4.08 1.87-4.08 4.27 0 2.4 1.95 4.24 4.08 4.24 1.01 0 1.82-.45 2.24-.97h.06v.61c0 1.63-.87 2.5-2.27 2.5-1.14 0-1.85-.82-2.14-1.51l-1.63.68c.47 1.13 1.71 2.51 3.77 2.51 2.19 0 4.04-1.29 4.04-4.43V22h-1.77v.69zm-2.14 5.88c-1.29 0-2.37-1.08-2.37-2.56s1.08-2.59 2.37-2.59 2.27 1.1 2.27 2.59c0 1.49-1 2.56-2.27 2.56zm19.91-11.08v12.5h1.87v-4.74h2.61c2.07 0 4.1-1.5 4.1-3.88s-2.03-3.88-4.1-3.88h-4.48zm4.52 6.03h-2.65v-4.29h2.65c1.4 0 2.19 1.16 2.19 2.14 0 .98-.79 2.14-2.19 2.14v.01zm11.53-1.8c-1.35 0-2.75.6-3.33 1.91l1.66.69c.35-.69 1.01-.92 1.7-.92.96 0 1.95.58 1.96 1.61v.13c-.34-.19-1.06-.48-1.95-.48-1.79 0-3.6.98-3.6 2.81 0 1.67 1.46 2.75 3.1 2.75 1.25 0 1.95-.56 2.38-1.22h.06v.96h1.8v-4.79c0-2.22-1.66-3.46-3.8-3.46l.02.01zm-.23 6.85c-.61 0-1.46-.31-1.46-1.06 0-.96 1.06-1.33 1.98-1.33.82 0 1.21.18 1.7.42a2.254 2.254 0 01-2.22 1.98v-.01zm10.58-6.58l-2.14 5.42h-.06l-2.22-5.42h-2.01l3.33 7.58-1.9 4.21h1.95l5.13-11.79h-2.08zm-16.81 8h1.87v-12.5h-1.87v12.5z" fill="#fff"/><path d="M20.75 19.42L10.1 30.72a2.876 2.876 0 004.24 1.73l.03-.02 11.98-6.91-5.61-6.11.01.01z" fill="#EA4335"/><path d="M31.52 17.5h-.01l-5.17-3.01-5.83 5.19 5.85 5.85 5.15-2.97a2.88 2.88 0 001.51-2.53c0-1.09-.6-2.04-1.5-2.52v-.01z" fill="#FBBC04"/><path d="M10.1 9.28c-.06.24-.1.48-.1.74v19.96c0 .26.03.5.1.74l11.01-11.01L10.1 9.28z" fill="#4285F4"/><path d="M20.83 20l5.51-5.51-11.97-6.94a2.89 2.89 0 00-4.27 1.72l10.73 10.72V20z" fill="#34A853"/></g><defs><clipPath id="clip0_204_2"><path fill="#fff" d="M0 0h135v40H0z"/></clipPath></defs></svg>