<svg width="123" height="40" viewBox="0 0 123 40" fill="none" xmlns="http://www.w3.org/2000/svg"><g clip-path="url(#clip0_204_9)"><path fill="#000" d="M0 0h123v40H0z"/><path d="M24.463 20.413a5.158 5.158 0 012.468-4.34 5.307 5.307 0 00-4.173-2.259c-1.757-.188-3.461 1.046-4.35 1.046-.889 0-2.29-1.035-3.775-1.004a5.557 5.557 0 00-4.675 2.855c-2.018 3.503-.512 8.648 1.422 11.482.973 1.391 2.102 2.939 3.587 2.876 1.454-.063 1.998-.92 3.744-.92 1.747 0 2.238.92 3.755.889 1.558-.021 2.54-1.391 3.471-2.792a11.341 11.341 0 001.59-3.232 4.998 4.998 0 01-3.054-4.601h-.01zm-2.866-8.46a5.081 5.081 0 001.161-3.65 5.168 5.168 0 00-3.357 1.736 4.842 4.842 0 00-1.192 3.514 4.298 4.298 0 003.388-1.6zm21.198 15.603h-4.947l-1.192 3.513h-2.091l4.685-12.988h2.175L46.11 31.07h-2.133l-1.193-3.513h.01l.001-.001zm-4.434-1.621h3.922l-1.935-5.7h-.053l-1.934 5.7zm17.882.397c0 2.939-1.579 4.831-3.953 4.831a3.22 3.22 0 01-2.98-1.652h-.042v4.685h-1.945V21.595h1.882v1.579h.032a3.356 3.356 0 013.011-1.673c2.406 0 3.985 1.903 3.985 4.831h.01zm-1.997 0c0-1.914-.994-3.179-2.5-3.179-1.505 0-2.488 1.286-2.488 3.18 0 1.892 1.003 3.189 2.488 3.189s2.5-1.255 2.5-3.19zm12.413 0c0 2.939-1.58 4.831-3.953 4.831a3.22 3.22 0 01-2.98-1.652h-.042v4.685h-1.945V21.595h1.882v1.579h.031a3.357 3.357 0 013.012-1.673c2.405 0 3.984 1.903 3.984 4.831h.011zm-1.998 0c0-1.914-.993-3.179-2.499-3.179-1.506 0-2.489 1.286-2.489 3.18 0 1.892 1.004 3.189 2.49 3.189 1.484 0 2.5-1.255 2.5-3.19h-.002zm8.889 1.119c.147 1.286 1.391 2.133 3.106 2.133 1.715 0 2.813-.847 2.813-2.008 0-1.003-.71-1.61-2.394-2.028l-1.684-.408c-2.384-.575-3.493-1.694-3.493-3.503 0-2.238 1.956-3.776 4.727-3.776 2.771 0 4.622 1.538 4.685 3.776h-1.966c-.115-1.297-1.192-2.081-2.75-2.081-1.559 0-2.636.794-2.636 1.945 0 .92.68 1.453 2.353 1.872l1.433.355c2.666.628 3.775 1.705 3.775 3.598 0 2.426-1.935 3.952-5.01 3.952-2.875 0-4.82-1.484-4.945-3.837h1.986v.01zm12.163-8.094v2.238h1.798v1.537h-1.798v5.218c0 .816.355 1.192 1.15 1.192.209 0 .429-.02.638-.041v1.526a6.251 6.251 0 01-1.077.095c-1.914 0-2.667-.722-2.667-2.552v-5.428h-1.38v-1.537h1.38v-2.238h1.956v-.01zm2.844 6.975c0-2.98 1.757-4.852 4.486-4.852 2.73 0 4.486 1.872 4.486 4.852 0 2.98-1.736 4.852-4.486 4.852s-4.486-1.861-4.486-4.852zm7.007 0c0-2.04-.942-3.252-2.51-3.252-1.569 0-2.51 1.213-2.51 3.252 0 2.04.93 3.252 2.51 3.252 1.579 0 2.51-1.192 2.51-3.252zm3.576-4.727h1.851v1.61h.042a2.28 2.28 0 012.28-1.714c.219 0 .449.02.669.073v1.82a2.72 2.72 0 00-.868-.116 1.964 1.964 0 00-2.029 2.186v5.616H99.14v-9.475zm13.804 6.683c-.262 1.715-1.935 2.896-4.079 2.896-2.75 0-4.465-1.84-4.465-4.81 0-2.97 1.715-4.894 4.382-4.894 2.666 0 4.266 1.798 4.266 4.674v.67h-6.682v.115a2.474 2.474 0 002.238 2.677c.105 0 .209.01.303 0a2.15 2.15 0 002.186-1.328h1.851zm-6.567-2.824h4.737a2.265 2.265 0 00-2.144-2.395h-.178a2.405 2.405 0 00-2.415 2.385v.02-.01zM38.11 8.314c1.516-.105 2.844 1.035 2.949 2.551.01.178 0 .366-.01.544 0 1.997-1.078 3.137-2.94 3.137h-2.258V8.314h2.259zm-.115 5.354a1.963 1.963 0 002.07-1.84c0-.137 0-.272-.02-.409a1.969 1.969 0 00-1.684-2.216 1.514 1.514 0 00-.377-.01h-1.17v4.475h1.181zm4.152-1.474a2.244 2.244 0 012.007-2.437 2.244 2.244 0 012.437 2.008c.01.146.01.282 0 .428a2.23 2.23 0 01-2.008 2.437 2.23 2.23 0 01-2.436-2.437v.001zm3.482 0c0-1.025-.46-1.622-1.265-1.622-.806 0-1.266.597-1.266 1.622 0 1.024.45 1.62 1.266 1.62.805 0 1.265-.596 1.265-1.62zm5.898 2.352l-.973-3.471h-.073l-.972 3.472h-.952L47.26 9.84h.941l.847 3.597h.074l.972-3.597h.89l.972 3.597h.073l.836-3.597h.931L52.5 14.547h-.972v-.001zm3.346-4.706h.9v.753h.073c.24-.554.805-.888 1.401-.836a1.526 1.526 0 011.642 1.412c0 .115 0 .23-.01.334v3.043h-.93v-2.813c0-.753-.325-1.13-1.016-1.13a1.077 1.077 0 00-1.129 1.026v2.917h-.93V9.84zM60.353 8h.93v6.546h-.93V8zm2.217 4.194a2.245 2.245 0 012.008-2.437 2.244 2.244 0 012.436 2.008c.01.146.01.282 0 .428a2.23 2.23 0 01-2.007 2.437 2.224 2.224 0 01-2.437-2.437v.001zm3.482 0c0-1.025-.46-1.622-1.265-1.622-.805 0-1.265.597-1.265 1.622 0 1.024.45 1.62 1.265 1.62.805 0 1.265-.596 1.265-1.62zm1.945 1.024c0-.847.628-1.338 1.747-1.401l1.276-.073v-.408c0-.502-.325-.774-.962-.774-.523 0-.879.188-.983.523h-.9c.094-.805.858-1.328 1.924-1.328 1.182 0 1.851.585 1.851 1.579v3.22h-.899v-.658h-.073a1.604 1.604 0 01-1.412.742 1.415 1.415 0 01-1.558-1.265v-.146l-.01-.01v-.001zm3.023-.397v-.397l-1.15.073c-.649.042-.942.261-.942.68 0 .418.366.669.868.669a1.112 1.112 0 001.213-.994v-.042l.01.01.001.001zm2.154-.627c0-1.486.763-2.427 1.955-2.427a1.548 1.548 0 011.444.827h.073V8.01h.93v6.546h-.888v-.743h-.073a1.645 1.645 0 01-1.475.827c-1.203 0-1.956-.942-1.956-2.437l-.01-.01v.001zm.962 0c0 1.003.47 1.6 1.255 1.6.784 0 1.265-.607 1.265-1.6 0-.994-.491-1.6-1.265-1.6-.774 0-1.255.606-1.255 1.6zm7.279-.001a2.244 2.244 0 012.007-2.436c1.224-.126 2.311.784 2.437 2.008.01.146.01.282 0 .428a2.23 2.23 0 01-2.008 2.437 2.23 2.23 0 01-2.436-2.437zm3.482 0c0-1.024-.46-1.62-1.266-1.62-.805 0-1.265.596-1.265 1.62 0 1.025.45 1.621 1.266 1.621.805 0 1.265-.596 1.265-1.62v-.001zm2.206-2.353h.9v.753h.073c.24-.554.805-.888 1.401-.836a1.526 1.526 0 011.642 1.412c0 .115 0 .23-.01.334v3.043h-.931v-2.813c0-.753-.324-1.13-1.014-1.13a1.079 1.079 0 00-1.13 1.026v2.917h-.93V9.84h-.001zm9.245-1.17v1.19h1.025v.785h-1.025v2.426c0 .491.198.711.67.711.114 0 .24 0 .355-.02v.773a4.083 4.083 0 01-.502.052c-1.036 0-1.444-.366-1.444-1.276v-2.656h-.742v-.784h.742V8.68h.931l-.01-.01zm2.29-.67h.92v2.594h.073a1.46 1.46 0 011.433-.848 1.546 1.546 0 011.632 1.464c0 .095 0 .2-.011.293v3.043h-.931v-2.813c0-.753-.345-1.13-1.004-1.13a1.082 1.082 0 00-1.067.591c-.065.13-.104.27-.114.414v2.938h-.931V8zm9.474 5.281a1.902 1.902 0 01-2.039 1.36 2.14 2.14 0 01-2.196-2.082c0-.115 0-.23.021-.345a2.17 2.17 0 012.165-2.457c1.307 0 2.102.9 2.102 2.374v.324h-3.326v.052c-.062.69.45 1.286 1.14 1.35h.115c.45.052.9-.168 1.119-.576h.899zm-3.273-1.516h2.374a1.124 1.124 0 00-1.046-1.213h-.115c-.669 0-1.213.523-1.223 1.192v.031l.01-.01z" fill="#fff"/></g><defs><clipPath id="clip0_204_9"><path fill="#fff" d="M0 0h123v40H0z"/></clipPath></defs></svg>